<svg width="190" height="313" viewBox="0 0 190 313" fill="none" xmlns="http://www.w3.org/2000/svg">
<path d="M84.9889 306.44C68.3063 306.44 54.0414 304.143 42.1943 299.549C30.5889 294.956 21.764 289.032 15.7196 281.779C9.91693 274.525 7.0156 267.03 7.0156 259.293C7.0156 251.073 9.43338 244.545 14.2689 239.709C19.3463 234.632 25.9952 232.093 34.2156 232.093C36.1498 232.093 38.084 232.335 40.0183 232.819C41.9525 233.06 43.2823 233.181 44.0076 233.181L48.7223 233.907V291.933C48.964 291.933 51.5027 292.9 56.3383 294.835C62.6245 296.527 69.7569 297.373 77.7356 297.373C92.2423 297.373 103.727 291.45 112.189 279.603C120.651 267.514 124.882 248.655 124.882 223.027C124.882 197.64 120.53 179.265 111.826 167.901C103.122 156.296 90.5498 150.493 74.1089 150.493C67.8227 150.493 61.8992 151.581 56.3383 153.757C50.7774 155.933 44.8538 158.835 38.5676 162.461C33.4903 165.604 28.4129 169.473 23.3356 174.067L16.0823 168.627L30.5889 47.1333H137.576C139.268 34.0773 143.378 23.1973 149.906 14.4933C152.566 10.3831 155.709 6.75644 159.336 3.61332H170.216V74.3333H38.5676L28.7756 157.747C32.1605 155.329 37.1169 152.669 43.6449 149.768C57.1845 144.207 69.7569 141.427 81.3623 141.427C116.662 141.427 143.016 148.68 160.424 163.187C177.832 177.452 186.536 197.398 186.536 223.027C186.536 249.139 177.952 269.569 160.786 284.317C143.62 299.066 118.354 306.44 84.9889 306.44Z" fill="#E6E6E6"/>
</svg>
