<svg width="255" height="102" viewBox="0 0 255 102" fill="none" xmlns="http://www.w3.org/2000/svg">
<path d="M35.7734 54.176L37.6483 55.1129C38.4803 55.5287 39.459 54.9236 39.459 53.9935V53.9935C39.459 53.3024 38.8987 52.7422 38.2076 52.7422H37.6162" stroke="#072239" stroke-width="3" stroke-linecap="round"/>
<path d="M35.7744 77.3132L35.8476 77.3635C36.5965 77.8787 37.6162 77.3426 37.6162 76.4335V76.4335C37.6162 75.8101 37.1108 75.3047 36.4874 75.3047H35.7734" stroke="#072239" stroke-width="3" stroke-linecap="round"/>
<path d="M200.522 27.5399C200.136 27.4267 199.797 27.2526 199.505 27.0177C199.212 26.7588 198.931 26.4757 198.662 26.1685C198.539 26.0266 198.33 25.7422 198.035 25.3154C197.739 24.8885 197.419 24.4141 197.074 23.8921C196.752 23.3697 196.444 22.883 196.148 22.4322C195.851 21.9573 195.629 21.6012 195.481 21.3638C195.367 21.7258 195.24 22.0281 195.101 22.2706C194.985 22.4887 194.931 22.8377 194.939 23.3176C194.705 23.6578 194.532 24.0449 194.42 24.479C194.331 24.8886 194.23 25.2984 194.117 25.7085C194.05 25.9737 193.934 26.2158 193.77 26.4347C193.63 26.6532 193.441 26.8486 193.204 27.0208C192.916 27.0019 192.662 26.9103 192.443 26.7461C192.248 26.5816 192.077 26.4165 191.93 26.2511C191.781 25.9657 191.716 25.6908 191.736 25.4264C191.755 25.162 191.811 24.909 191.902 24.6673C191.947 24.4505 192.071 24.0283 192.276 23.4006C192.505 22.7724 192.745 22.0961 192.997 21.3716C193.247 20.623 193.476 19.9589 193.682 19.3792C193.887 18.7755 194 18.4014 194.022 18.257C194.157 17.7745 194.4 17.2542 194.75 16.6959C195.124 16.1132 195.377 15.4847 195.509 14.8102C195.554 14.6414 195.672 14.4833 195.861 14.336C196.05 14.1646 196.264 14.0768 196.504 14.0726C196.768 14.0439 196.986 14.1721 197.159 14.4571C197.208 14.4803 197.28 14.515 197.377 14.5613C197.474 14.5836 197.546 14.6303 197.596 14.7015C197.791 14.914 197.903 15.1401 197.932 15.3796C197.984 15.6188 197.94 15.8716 197.801 16.1381C197.499 16.6955 197.243 17.1561 197.033 17.5198C196.847 17.8591 196.662 18.2345 196.477 18.6458C196.292 19.0571 196.086 19.6248 195.859 20.3489C196.265 20.2458 196.564 20.1685 196.755 20.1171C196.946 20.0417 197.124 19.9306 197.289 19.7837C197.478 19.6123 197.726 19.3559 198.032 19.0144C198.15 18.8923 198.386 18.6602 198.74 18.3179C199.117 17.9512 199.506 17.5602 199.907 17.1451C200.332 16.7296 200.697 16.3631 201.004 16.0456C201.334 15.7277 201.511 15.5446 201.534 15.4962C201.674 15.2777 201.815 15.0832 201.956 14.9126C202.121 14.7177 202.334 14.5699 202.596 14.4693C202.957 14.5109 203.21 14.5785 203.356 14.6719C203.501 14.7414 203.781 14.9405 204.195 15.2692C204.316 15.3631 204.368 15.5902 204.351 15.9506C204.333 16.287 204.205 16.5533 203.969 16.7495C203.543 17.093 203.01 17.5345 202.372 18.0738C201.733 18.6131 201.047 19.1773 200.313 19.7664C199.604 20.355 198.893 20.9076 198.182 21.4242C198.528 21.9702 198.837 22.4928 199.11 22.9921C199.382 23.4673 199.606 23.8715 199.78 24.2044C199.838 24.8035 200.061 25.2076 200.449 25.4168C200.86 25.6016 201.354 25.6889 201.93 25.6788C202.124 25.7714 202.246 25.8892 202.296 26.0324C202.37 26.1511 202.409 26.2944 202.412 26.4624C202.438 26.606 202.465 26.7495 202.491 26.8931C202.159 27.115 201.923 27.3112 201.782 27.4817C201.664 27.6278 201.522 27.7143 201.354 27.7412C201.21 27.7438 200.933 27.6767 200.522 27.5399ZM220.624 27.4376C220.479 27.3921 220.334 27.3587 220.19 27.3372C220.045 27.2918 219.9 27.2463 219.755 27.2009C219.634 27.155 219.49 27.1215 219.321 27.1005C219.076 26.7688 218.972 26.3625 219.012 25.8818C219.051 25.377 219.15 24.8592 219.309 24.3283C219.491 23.797 219.662 23.2779 219.821 22.771C220.004 22.2637 220.105 21.8299 220.122 21.4695C220.097 21.3739 220.06 21.3506 220.013 21.3994C219.965 21.4243 219.942 21.4607 219.943 21.5087C219.778 21.7036 219.541 21.8398 219.23 21.9173C218.919 21.9948 218.632 22.0598 218.369 22.1125C217.915 22.1925 217.46 22.2845 217.006 22.3886C216.552 22.4926 216.11 22.6084 215.68 22.736C215.607 22.6893 215.522 22.6308 215.425 22.5605C215.352 22.4897 215.278 22.431 215.206 22.3843C215.038 22.3873 214.896 22.5458 214.782 22.8598C214.667 23.1739 214.566 23.5597 214.478 24.0174C214.39 24.451 214.301 24.8726 214.213 25.2822C214.147 25.6675 214.08 25.9447 214.011 26.1139C213.628 26.1687 213.352 26.1855 213.184 26.1645C213.04 26.1431 212.762 26.0759 212.352 25.9631C212.156 25.7026 212.043 25.4525 212.015 25.213C212.011 24.973 212.042 24.7084 212.109 24.4192C212.219 23.8652 212.307 23.4195 212.374 23.0823C212.464 22.7447 212.612 22.31 212.819 21.7783C212.934 21.5122 213.037 21.2583 213.129 21.0167C213.245 20.7506 213.299 20.4616 213.294 20.1496C213.482 19.9063 213.609 19.64 213.676 19.3508C213.743 19.0616 213.822 18.7721 213.913 18.4825C214.279 17.4919 214.566 16.7307 214.773 16.199C215.003 15.6428 215.163 15.2079 215.254 14.8943C215.344 14.5806 215.399 14.2916 215.418 14.0272C215.436 13.6909 215.637 13.5193 216.021 13.5125C216.261 13.5083 216.515 13.5999 216.782 13.7872C217.049 13.9505 217.257 14.1629 217.406 14.4243C217.554 14.6857 217.571 14.9614 217.456 15.2515C217.388 15.4448 217.273 15.7588 217.113 16.1937C216.976 16.6042 216.816 17.0631 216.633 17.5704C216.474 18.0533 216.314 18.5122 216.153 18.9471C216.016 19.3575 215.902 19.6596 215.809 19.8533C215.787 19.9497 215.74 20.0345 215.67 20.1078C215.598 20.157 215.564 20.2416 215.566 20.3616C215.736 20.4786 216.013 20.5218 216.396 20.491C216.804 20.4358 217.09 20.3588 217.257 20.2598C217.616 20.2535 217.964 20.2473 218.3 20.2414C218.66 20.2351 219.02 20.2287 219.38 20.2224C219.744 20.432 220.026 20.7511 220.225 21.1796C220.385 20.7207 220.603 20.1168 220.877 19.3679C221.152 18.5949 221.414 17.8342 221.665 17.0856C221.916 16.3371 222.062 15.7704 222.103 15.3856C222.148 15.1688 222.24 14.9752 222.381 14.8047C222.522 14.6341 222.676 14.4994 222.842 14.4005C223.181 14.5625 223.508 14.7008 223.822 14.8153C224.159 14.9053 224.38 15.1775 224.484 15.6317C224.464 15.8481 224.42 16.0649 224.352 16.2822C224.283 16.4754 224.214 16.6686 224.146 16.8619C223.918 17.562 223.632 18.3352 223.286 19.1814C222.941 20.0036 222.62 20.8494 222.323 21.7187C222.05 22.5637 221.86 23.3592 221.753 24.1052C221.754 24.1772 221.699 24.4182 221.586 24.8282C221.497 25.2379 221.396 25.6357 221.283 26.0218C221.193 26.4074 221.137 26.6124 221.114 26.6368C221.116 26.8048 221.071 26.9616 220.978 27.1073C220.884 27.229 220.766 27.3391 220.624 27.4376ZM233.816 27.5291C233.572 27.2934 233.327 26.9736 233.079 26.5699C232.832 26.1422 232.631 25.6537 232.477 25.1043C232.426 24.9132 232.397 24.6497 232.392 24.3137C232.41 23.9773 232.405 23.7374 232.379 23.5938C232.31 23.7631 232.193 23.9451 232.028 24.1401C231.887 24.3106 231.746 24.4571 231.604 24.5796C231.51 24.6773 231.297 24.8731 230.966 25.167C230.635 25.4368 230.303 25.6587 229.97 25.8326C229.187 26.3505 228.532 26.6381 228.005 26.6954C227.502 26.7523 227.017 26.4968 226.551 25.9289C226.162 25.6237 225.88 25.2806 225.705 24.8996C225.554 24.5182 225.545 23.9903 225.677 23.3159C225.71 22.4752 225.816 21.6572 225.994 20.8619C226.171 20.0427 226.548 18.9559 227.124 17.6015C227.611 16.6088 227.982 15.8821 228.238 15.4215C228.494 14.9369 228.657 14.646 228.727 14.5488C229.085 14.4224 229.385 14.4292 229.627 14.5689C229.869 14.6847 230.017 14.9101 230.071 15.2452C230.22 15.4826 230.203 15.891 230.021 16.4703C229.863 17.0491 229.576 17.7623 229.159 18.6098C228.837 19.4316 228.539 20.253 228.266 21.0739C228.016 21.8944 227.873 22.5931 227.835 23.1698C227.797 23.7466 227.947 24.092 228.285 24.2061C228.503 24.3222 228.874 24.2797 229.399 24.0784C229.947 23.8767 230.551 23.386 231.209 22.6063C231.892 21.8261 232.543 20.6505 233.163 19.0793C233.347 18.596 233.483 18.1735 233.573 17.8119C233.662 17.4262 233.715 17.0052 233.731 16.5489C233.678 16.2618 233.685 16.0096 233.754 15.7924C233.845 15.5507 234.034 15.3434 234.319 15.1703C234.413 15.0486 234.543 14.9383 234.709 14.8394C234.875 14.7164 234.983 14.7145 235.033 14.8337L235.608 14.7875C235.704 14.7618 235.765 14.8208 235.791 14.9643C235.841 15.0835 235.927 15.19 236.049 15.2838C236.317 15.4952 236.397 15.9618 236.29 16.6838C236.182 17.4058 235.864 18.4196 235.335 19.7251C234.897 20.717 234.598 21.4664 234.439 21.9733C234.304 22.4797 234.228 22.9731 234.213 23.4535C234.22 23.8854 234.311 24.2919 234.486 24.6728C234.661 25.0538 234.931 25.3971 235.296 25.7027C235.563 25.866 235.711 26.0555 235.739 26.271C235.79 26.4861 235.807 26.7379 235.788 27.0263C235.744 27.2431 235.603 27.4256 235.365 27.5738C235.152 27.6976 234.901 27.762 234.613 27.7671C234.325 27.7722 234.059 27.6928 233.816 27.5291ZM251.731 26.3492C251.658 26.3025 251.501 26.2332 251.259 26.1415C251.041 26.0253 250.908 25.9556 250.859 25.9325C250.689 25.7915 250.589 25.6132 250.562 25.3976C250.534 25.1821 250.518 24.9423 250.513 24.6784C250.532 24.414 250.503 24.1385 250.426 23.8518C250.492 23.5146 250.558 23.1294 250.622 22.6962C250.686 22.2629 250.8 21.9129 250.964 21.646C251.052 21.2363 251.188 20.7539 251.37 20.1986C251.576 19.6189 251.758 19.0516 251.916 18.4967C252.098 17.9174 252.209 17.4234 252.25 17.0146C251.871 17.2613 251.539 17.5312 251.256 17.8242C250.973 18.1172 250.739 18.4094 250.552 18.7008C250.458 18.8464 250.352 18.9683 250.234 19.0664C250.115 19.1405 249.997 19.2386 249.879 19.3607C249.597 19.6778 249.326 20.0066 249.068 20.3472C248.81 20.6878 248.553 21.0404 248.295 21.405C247.874 22.0125 247.391 22.5731 246.848 23.0867C246.305 23.6004 245.786 24.1136 245.291 24.6264C245.103 24.8458 244.89 24.9935 244.651 25.0698C244.436 25.1216 244.219 25.1014 244.002 25.0092C243.712 24.8943 243.469 24.7545 243.274 24.5899C243.103 24.4249 242.919 24.1881 242.722 23.8796C242.689 23.4001 242.752 22.8469 242.909 22.22C243.089 21.5927 243.294 20.953 243.523 20.3009C243.775 19.6483 243.993 19.0444 244.175 18.4891C244.357 17.9098 244.445 17.4522 244.439 17.1163C244.414 17.0927 244.378 17.0813 244.33 17.0822C244.306 17.0826 244.271 17.1072 244.223 17.1561C243.207 18.0621 242.336 19.0136 241.609 20.0106C240.907 21.0071 240.184 22.196 239.44 23.5774C239.254 23.9407 239.07 24.4 238.888 24.9553C238.729 25.4862 238.484 25.8866 238.153 26.1564C238.129 26.1569 238.105 26.1573 238.081 26.1577C238.081 26.1337 238.069 26.1219 238.045 26.1224C238.02 26.0748 237.984 26.0754 237.937 26.1243C237.889 26.1731 237.818 26.2104 237.722 26.236C237.602 26.2382 237.481 26.1803 237.359 26.0624C237.188 25.8974 237.005 25.7326 236.811 25.568C236.64 25.403 236.516 25.2011 236.44 24.9625C236.484 24.7696 236.541 24.6006 236.611 24.4554C236.68 24.2861 236.809 24.0918 236.997 23.8725C237.064 23.6312 237.157 23.4136 237.273 23.2195C237.414 23.025 237.53 22.8069 237.622 22.5653C237.851 21.9371 238.222 21.2105 238.736 20.3853C239.249 19.5601 239.847 18.7454 240.529 17.9413C241.211 17.1372 241.918 16.4286 242.652 15.8156C243.385 15.2025 244.074 14.7823 244.718 14.5549C244.742 14.5545 244.754 14.5543 244.754 14.5543C244.778 14.5539 244.802 14.5535 244.826 14.553C245.067 14.6208 245.284 14.701 245.478 14.7936C245.671 14.8622 245.877 14.9426 246.094 15.0348C246.192 15.153 246.303 15.3071 246.427 15.497C246.55 15.6628 246.637 15.8413 246.688 16.0325C246.789 16.3187 246.784 16.7269 246.674 17.2569C246.563 17.7869 246.428 18.3174 246.27 18.8483C246.111 19.3791 245.974 19.8016 245.86 20.1157C245.838 20.2121 245.757 20.4175 245.619 20.732C245.48 21.0465 245.4 21.288 245.379 21.4564C245.38 21.4804 245.38 21.5043 245.381 21.5283C245.381 21.5523 245.394 21.5761 245.418 21.5997C245.796 21.233 246.161 20.8545 246.514 20.4642C246.891 20.0735 247.232 19.6834 247.538 19.294C248.266 18.417 249.007 17.5278 249.759 16.6264C250.535 15.7006 251.41 14.9411 252.383 14.3478C252.621 14.2236 252.897 14.2427 253.212 14.4052C253.551 14.5673 253.806 14.7428 253.978 14.9318C254.246 15.1431 254.395 15.4285 254.425 15.7881C254.481 16.2671 254.433 16.9281 254.28 17.7709C254.126 18.5898 253.925 19.4094 253.675 20.23C253.45 21.0501 253.233 21.702 253.025 22.1857C252.98 22.3065 252.945 22.4032 252.923 22.4756C252.9 22.548 252.878 22.6564 252.856 22.8008C252.835 22.9692 252.79 23.138 252.721 23.3073C252.676 23.4761 252.631 23.6329 252.585 23.7777C252.519 24.0909 252.512 24.4031 252.566 24.7142C252.643 25.0249 252.697 25.336 252.726 25.6475C252.727 25.6715 252.691 25.7081 252.62 25.7574C252.478 25.8559 252.336 25.9545 252.193 26.053C252.075 26.1271 251.944 26.2254 251.803 26.3479C251.779 26.3483 251.767 26.3485 251.767 26.3485C251.767 26.3485 251.755 26.3488 251.731 26.3492Z" fill="#072239"/>
<path d="M59.9075 31.7834C59.1627 31.7509 58.716 31.6281 58.5676 31.4151C58.4431 31.2017 58.3784 30.975 58.3734 30.735C58.4859 30.3726 58.6107 30.0219 58.7477 29.683C58.9087 29.3436 59.0212 28.9812 59.0852 28.5958C59.1507 28.2824 59.2167 27.9929 59.2832 27.7275C59.3497 27.4621 59.4277 27.1724 59.5172 26.8584C59.6972 26.2786 59.8985 25.5663 60.121 24.7215C60.3675 23.8762 60.626 23.0306 60.8965 22.1848C61.167 21.339 61.4045 20.6379 61.609 20.0816C61.7895 19.5257 61.9358 19.0546 62.0478 18.6682C62.1838 18.2813 62.32 17.9063 62.4565 17.5434C62.593 17.1805 62.74 16.7454 62.8975 16.238C63.011 15.9236 63.1128 15.6214 63.2028 15.3315C63.2923 15.0175 63.3818 14.7036 63.4713 14.3897C63.5848 14.0753 63.6866 13.7731 63.7766 13.4832C63.8901 13.1687 63.9916 12.8546 64.0811 12.5406C64.3335 11.9833 64.5505 11.4507 64.732 10.9428C64.9375 10.4344 65.118 9.87855 65.2735 9.27519C65.365 9.05724 65.3498 8.90153 65.2278 8.80804C65.1299 8.71405 65.0776 8.51109 65.0712 8.19916C65.0412 7.91172 65.109 7.70627 65.2744 7.58281C65.4634 7.43485 65.7026 7.39388 65.992 7.45989C66.3295 7.5249 66.7986 7.57517 67.3995 7.61071C68.0243 7.64575 68.5887 7.65804 69.0926 7.64758C69.62 7.61263 69.9074 7.58266 69.9549 7.55766C70.0739 7.50719 70.4683 7.42698 71.1382 7.31706C71.8075 7.18314 72.6206 7.03423 73.5774 6.87034C74.5342 6.70644 75.5153 6.55405 76.5206 6.41316C77.5499 6.27177 78.4594 6.14486 79.2493 6.03244C79.5122 5.97898 79.7642 5.97375 80.0051 6.01676C80.27 6.05927 80.523 6.10203 80.7639 6.14503C81.0769 6.18655 81.3923 6.34804 81.7102 6.6295C82.0281 6.91096 82.1433 7.25665 82.0558 7.66655C81.9653 7.93249 81.7643 8.08069 81.4529 8.11116C81.1409 8.11764 80.72 8.07836 80.1902 7.99334C80.1422 7.99434 80.0962 8.09131 80.0522 8.28427C80.0082 8.47722 79.9529 8.70642 79.8864 8.97186C79.8439 9.2368 79.7656 9.51448 79.6516 9.80491C79.5112 9.97586 79.3499 10.3033 79.1679 10.7872C79.0099 11.2705 78.8409 11.8022 78.6609 12.382C78.4809 12.9619 78.3359 13.493 78.2259 13.9754C78.1159 14.4578 78.0629 14.795 78.0668 14.9869C77.7419 15.5218 77.5139 16.1026 77.3829 16.7295C77.2758 17.3558 77.1321 17.947 76.9516 18.5028C76.9296 18.5993 76.8406 18.9372 76.6846 19.5166C76.552 20.0714 76.386 20.747 76.1865 21.5434C75.987 22.3397 75.7875 23.136 75.588 23.9323C75.3879 24.7046 75.2217 25.3682 75.0892 25.9231C74.9567 26.4779 74.8911 26.7914 74.8926 26.8633C74.8786 27.3437 74.8288 27.8369 74.7433 28.3428C74.6818 28.8482 74.644 29.341 74.63 29.8214C74.656 29.9169 74.6697 30.0007 74.6712 30.0726C74.6722 30.1206 74.6252 30.1696 74.5302 30.2196C74.3417 30.3915 74.0196 30.4822 73.5637 30.4917C73.1073 30.4772 72.8176 30.3992 72.6946 30.2577C72.5946 30.0677 72.5072 29.9015 72.4322 29.759C72.3567 29.5926 72.329 29.4131 72.349 29.2206C72.3831 28.5478 72.4531 27.8742 72.5591 27.1999C72.6651 26.5255 72.7597 25.8754 72.8427 25.2495C72.9497 24.6232 73.082 24.0563 73.2395 23.5489C73.397 23.0416 73.5112 22.7631 73.5822 22.7137L74.213 20.144C74.462 19.4187 74.6183 18.8513 74.6818 18.4419C74.7448 18.0085 74.8081 17.5871 74.8716 17.1777C74.9591 16.7678 75.1161 16.2364 75.3426 15.5836C75.5701 14.9787 75.7496 14.3749 75.8812 13.772C76.0362 13.1447 76.1914 12.5293 76.3469 11.9259C76.503 11.3466 76.6605 10.8392 76.8195 10.4038C76.978 9.94443 77.1017 9.54577 77.1907 9.20785C77.3037 8.86943 77.3457 8.5805 77.3168 8.34105C76.7899 8.4 76.2992 8.47019 75.8448 8.55164C75.4144 8.63259 74.96 8.71404 74.4816 8.79599C74.0267 8.85344 73.4643 8.93713 72.7944 9.04706C72.3875 9.10351 71.8494 9.1987 71.18 9.33262C70.5101 9.44255 69.8883 9.55148 69.3144 9.65941C68.764 9.74285 68.4168 9.78607 68.2729 9.78906C68.1054 9.81654 67.9624 9.86751 67.8439 9.94199C67.7255 10.0165 67.6675 10.1137 67.67 10.2337C67.325 10.961 66.9922 11.7 66.6718 12.4509C66.3508 13.1777 66.0653 13.8798 65.8153 14.5571C65.5888 15.2099 65.4208 15.7895 65.3113 16.2959C65.2653 16.3929 65.1743 16.6348 65.0383 17.0217C64.9023 17.4086 64.7435 17.856 64.562 18.3639C64.3805 18.8718 64.2105 19.3554 64.052 19.8148C63.8935 20.2742 63.769 20.6369 63.6785 20.9028C63.6115 21.1442 63.5888 21.2047 63.6103 21.0843C63.2743 22.2435 62.9932 23.1615 62.7672 23.8383C62.5647 24.4907 62.3955 25.0103 62.2595 25.3972C62.1235 25.7841 62.0105 26.1225 61.9205 26.4125C61.8305 26.7024 61.7417 27.0523 61.6542 27.4622C61.5182 27.8491 61.4065 28.2475 61.3189 28.6574C61.2314 29.0673 61.1439 29.4772 61.0564 29.8872C61.0349 30.0076 61.0017 30.1403 60.9567 30.2853C60.9356 30.4298 60.8939 30.7307 60.8314 31.1881C60.7394 31.3821 60.6224 31.5285 60.4804 31.6275C60.3629 31.7499 60.172 31.8019 59.9075 31.7834ZM82.1409 29.9536C81.829 29.9601 81.5758 29.9053 81.3813 29.7893C81.2109 29.6728 80.9914 29.5093 80.723 29.2989C80.2571 28.8284 79.9237 28.3793 79.7228 27.9513C79.5214 27.4994 79.4524 27.0688 79.516 26.6594C79.584 26.4659 79.6042 26.2854 79.5767 26.118C79.5728 25.926 79.5708 25.83 79.5708 25.83C79.4483 25.7126 79.4108 25.6413 79.4583 25.6163C79.5053 25.5673 79.5518 25.4944 79.5978 25.3974C79.7418 25.3944 79.787 25.2614 79.7335 24.9985C79.6816 24.8075 79.7688 24.3856 79.9953 23.7328C80.2218 23.0799 80.5091 22.4618 80.857 21.8785C80.996 21.6356 81.2055 21.3191 81.4855 20.9292C81.7649 20.5154 82.0687 20.113 82.3966 19.7221C82.7481 19.3067 83.0653 18.976 83.3482 18.7301C83.9376 18.2138 84.4578 17.8309 84.9087 17.5815C85.3596 17.3321 85.8478 17.1419 86.3732 17.011C86.8986 16.88 87.2573 16.8126 87.4492 16.8086C87.6652 16.8041 87.9571 16.9901 88.325 17.3665C88.8819 17.595 89.2838 17.8747 89.5307 18.2057C89.8016 18.5361 89.9798 19.0245 90.0652 19.6709C90.1521 20.3893 90.1093 21.2183 89.9368 22.1581C89.7878 23.0734 89.2475 24.2249 88.3161 25.6125C87.7342 26.4888 87.1958 27.1481 86.7008 27.5904C86.2054 28.0088 85.614 28.4292 84.9266 28.8515C84.4297 29.1979 83.979 29.4593 83.5746 29.6358C83.1697 29.7882 82.6918 29.8941 82.1409 29.9536ZM85.517 26.0667C86.0794 25.4069 86.5226 24.7855 86.8466 24.2027C87.1945 23.6193 87.5153 22.8805 87.8088 21.9862C87.8993 21.7203 87.9525 21.3951 87.9686 21.0107C87.9841 20.6023 87.9644 20.2306 87.9094 19.8957C87.8779 19.5363 87.7897 19.3341 87.6448 19.2891C87.3533 19.1271 87.0044 19.0863 86.598 19.1668C86.1911 19.2232 85.7519 19.4604 85.2805 19.8783C84.5496 20.5176 83.9179 21.3108 83.3855 22.2581C82.8525 23.1814 82.3343 24.2363 81.8308 25.423C81.4888 26.2943 81.4193 26.9919 81.6222 27.5158C81.8486 28.0152 82.2962 28.186 82.9651 28.0281C83.6575 27.8457 84.5081 27.1919 85.517 26.0667ZM97.6783 38.2369C97.5823 38.2389 97.4624 38.2414 97.3184 38.2444C97.1749 38.2714 97.0409 38.1781 96.9165 37.9647C96.818 37.8467 96.7543 37.668 96.7253 37.4285C96.7203 37.1886 96.7714 36.7554 96.8784 36.1291C96.9899 35.7187 97.0774 35.3088 97.1409 34.8993C97.2049 34.5139 97.235 34.2253 97.231 34.0333C97.229 33.9373 97.249 33.7449 97.291 33.4559C97.3575 33.1905 97.3895 32.9978 97.387 32.8778C97.503 32.6834 97.5935 32.4174 97.6585 32.08C97.7235 31.7426 97.7533 31.4419 97.7478 31.178C97.7418 30.89 97.8803 30.6231 98.1633 30.3772C98.1593 30.1852 98.1903 29.9445 98.2563 29.6551C98.3463 29.3651 98.3903 29.1722 98.3883 29.0762C98.4534 28.7388 98.5971 28.1477 98.8196 27.3029C99.0656 26.4336 99.3574 25.4553 99.6949 24.3681C100.056 23.2803 100.406 22.2168 100.745 21.1776C101.083 20.1383 101.389 19.2558 101.662 18.53C101.936 17.8522 102.116 17.2723 102.202 16.7904C102.312 16.284 102.364 15.9109 102.359 15.6709C102.357 15.5749 102.379 15.5025 102.426 15.4535C102.473 15.3805 102.578 15.2463 102.742 15.0508C102.977 14.8059 103.18 14.7297 103.35 14.8222C103.544 14.9142 103.774 15.0534 104.042 15.2399C104.241 15.5478 104.378 15.809 104.455 16.0235C104.555 16.2375 104.563 16.6094 104.478 17.1393C104.485 17.4992 104.432 17.8124 104.317 18.0788C104.203 18.3452 104.099 18.5514 104.006 18.6974C103.913 18.8193 103.89 18.8678 103.937 18.8428C104.911 18.3665 105.77 18.1086 106.514 18.0692C107.28 18.0053 107.919 18.124 108.429 18.4255C108.963 18.7025 109.368 19.1022 109.643 19.6246C109.918 20.147 110.062 20.7561 110.077 21.452C110.083 21.7399 110.03 22.0891 109.918 22.4995C109.806 22.8859 109.658 23.2491 109.473 23.589C109.311 23.9044 109.16 24.1356 109.019 24.2825C108.923 24.2845 108.829 24.3705 108.736 24.5405C108.643 24.6864 108.551 24.8564 108.459 25.0503C108.272 25.2943 107.966 25.5767 107.54 25.8976C107.138 26.194 106.735 26.4424 106.332 26.6428C105.927 26.8193 105.628 26.8735 105.435 26.8055C105.435 26.8055 105.399 26.8182 105.328 26.8437C105.28 26.8447 105.257 26.9052 105.259 27.0252C105.26 27.0732 105.071 27.1851 104.69 27.3611C104.309 27.513 103.868 27.6662 103.367 27.8206C102.866 27.951 102.423 28.0202 102.039 28.0282C101.535 28.0387 101.174 27.9502 100.954 27.7627C100.907 27.8117 100.848 27.8849 100.778 27.9824C100.732 28.0793 100.71 28.1638 100.711 28.2358C100.714 28.3798 100.66 28.657 100.549 29.0674C100.461 29.4533 100.348 29.8277 100.212 30.1906C100.075 30.5535 99.9471 30.7362 99.8272 30.7387C99.8272 30.7387 99.8039 30.7752 99.7574 30.8482C99.7109 30.9212 99.7369 31.0166 99.8354 31.1346C99.8354 31.1346 99.8261 31.2668 99.8076 31.5313C99.8136 31.8192 99.7586 32.0604 99.6426 32.2549C99.6466 32.4468 99.6165 32.7355 99.5525 33.1209C99.4885 33.5063 99.4105 33.796 99.3185 33.99C99.3245 34.2779 99.2822 34.5548 99.1917 34.8208C99.1257 35.1102 99.0447 35.2559 98.9488 35.2579C98.8533 35.2839 98.7963 35.4291 98.7778 35.6936C98.7597 35.982 98.752 36.1862 98.7545 36.3062C98.7429 36.9065 98.6327 37.3769 98.4237 37.7173C98.2147 38.0577 97.9662 38.2309 97.6783 38.2369ZM101.784 26.1251C101.976 26.1211 102.37 26.0289 102.966 25.8485C103.563 25.6681 104.17 25.4514 104.789 25.1985C105.432 24.9211 105.906 24.6472 106.212 24.3768C106.825 23.812 107.292 23.1782 107.613 22.4753C107.958 21.748 107.92 21.0647 107.499 20.4253C107.3 20.0933 106.949 19.9686 106.447 20.051C105.944 20.1095 105.396 20.3129 104.803 20.6613C104.21 21.0096 103.655 21.4413 103.138 21.9561C102.856 22.274 102.6 22.6634 102.37 23.1243C102.139 23.5852 101.945 24.0453 101.786 24.5047C101.652 24.9636 101.576 25.3493 101.558 25.6617C101.541 25.9741 101.616 26.1286 101.784 26.1251ZM114.895 29.9218C113.839 29.9437 112.967 29.5657 112.279 28.7879C111.59 27.986 111.245 26.9849 111.244 25.7847C111.274 24.9199 111.423 23.9926 111.691 23.0028C111.982 21.9886 112.37 21.0203 112.855 20.098C113.339 19.1518 113.874 18.3245 114.459 17.6162C115.045 16.9079 115.659 16.4031 116.3 16.1017C116.538 15.9767 116.788 15.8755 117.05 15.798C117.337 15.7201 117.624 15.6781 117.912 15.6721C118.176 15.6667 118.453 15.7089 118.743 15.7989C119.032 15.8649 119.274 15.9439 119.468 16.0359C119.879 16.1954 120.195 16.3929 120.416 16.6284C120.637 16.8638 120.837 17.2318 121.015 17.7322C121.097 18.1866 121.139 18.5098 121.143 18.7017C121.147 18.8937 121.093 19.1829 120.981 19.5693C120.711 20.4391 120.355 21.1906 119.912 21.824C119.469 22.4573 118.868 22.9979 118.109 23.4457C117.92 23.5697 117.694 23.6704 117.431 23.7478C117.192 23.8008 116.941 23.83 116.677 23.8355C116.197 23.8455 115.727 23.7712 115.268 23.6127C114.832 23.4297 114.479 23.161 114.207 22.8066L113.949 22.5239L113.847 22.814C113.621 23.4669 113.441 24.0707 113.309 24.6256C113.2 25.18 113.151 25.6851 113.16 26.141C113.166 26.4289 113.196 26.7044 113.249 26.9673C113.327 27.2298 113.427 27.4557 113.551 27.6452C113.65 27.7872 113.809 27.8919 114.026 27.9594C114.267 28.0024 114.519 28.0212 114.783 28.0157C114.951 28.0122 115.119 28.0087 115.287 28.0053C115.479 27.9773 115.658 27.9256 115.824 27.8501C116.229 27.6977 116.55 27.535 116.786 27.362C117.047 27.1886 117.307 27.0031 117.567 26.8057L117.709 26.7307L117.673 26.7315C117.958 26.5815 118.207 26.4323 118.42 26.2839C118.657 26.1349 118.776 26.0604 118.776 26.0604C118.872 26.0585 118.966 25.9965 119.06 25.8745C119.25 25.7745 119.49 25.8056 119.782 25.9675C120.097 26.129 120.258 26.3417 120.263 26.6057C120.242 26.7262 120.138 26.9204 119.951 27.1883C119.764 27.4322 119.553 27.6647 119.318 27.8856C119.106 28.106 118.929 28.2297 118.785 28.2567C118.762 28.2812 118.679 28.3309 118.536 28.4059C118.393 28.4569 118.298 28.5069 118.251 28.5559L118.287 28.5551C118.077 28.8475 117.864 28.996 117.648 29.0005L117.36 29.0065C117.268 29.1764 116.96 29.3748 116.437 29.6018C115.913 29.8047 115.399 29.9114 114.895 29.9218ZM116.35 21.9699C116.782 21.9609 117.152 21.8332 117.458 21.5868C117.789 21.3159 118.071 21.022 118.304 20.7051C118.771 20.0473 119.034 19.4177 119.093 18.8163C119.176 18.1904 119.095 17.76 118.85 17.5251C118.705 17.4561 118.572 17.4228 118.452 17.4253C118.356 17.4033 118.153 17.4435 117.843 17.546C117.628 17.5984 117.332 17.7846 116.954 18.1045C116.577 18.4244 116.2 18.7803 115.824 19.1722C115.472 19.5636 115.203 19.8933 115.016 20.1612L114.564 20.9267C114.755 20.8508 114.934 20.811 115.102 20.8076C115.293 20.7796 115.401 20.7893 115.426 20.8368C115.431 21.0528 115.471 21.256 115.547 21.4465C115.647 21.6124 115.757 21.7422 115.879 21.8356C116.025 21.9286 116.182 21.9734 116.35 21.9699ZM122.49 29.4761C122.297 29.4081 122.09 29.2684 121.869 29.0569C121.649 28.8214 121.463 28.5492 121.312 28.2403C121.162 27.9313 121.084 27.6449 121.079 27.3809C121.193 27.1145 121.34 26.6554 121.518 26.0035C121.696 25.3277 121.92 24.5549 122.19 23.6851C122.377 23.4171 122.514 23.1022 122.603 22.7403C122.715 22.3779 122.816 22.0517 122.906 21.7618C123.09 21.3739 123.308 20.8773 123.56 20.2719C123.811 19.6426 124.05 19.0135 124.277 18.3846C124.527 17.7313 124.744 17.1867 124.927 16.7508C125.178 16.1214 125.326 15.7343 125.371 15.5893C125.415 15.4204 125.449 15.2876 125.471 15.1912C125.467 14.9992 125.511 14.8422 125.605 14.7203C125.698 14.5743 125.792 14.5003 125.888 14.4983C125.982 14.4004 126.089 14.3501 126.209 14.3477C126.353 14.3207 126.472 14.3062 126.568 14.3042C126.832 14.2987 127.064 14.4739 127.263 14.8299C127.462 15.1618 127.565 15.4718 127.571 15.7597C127.577 16.0476 127.477 16.4578 127.272 16.9902C127.091 17.498 126.874 18.0307 126.621 18.588C126.393 19.1449 126.199 19.629 126.039 20.0404C125.88 20.4518 125.837 20.6927 125.91 20.7632C125.91 20.7632 126.077 20.6878 126.41 20.5368C126.742 20.3619 127.097 20.1265 127.475 19.8306C127.736 19.6811 128.02 19.4952 128.328 19.2727C128.635 19.0503 128.931 18.8401 129.215 18.6422C129.498 18.4203 129.736 18.2833 129.927 18.2313C130.211 18.0334 130.507 17.8472 130.815 17.6728C131.123 17.4743 131.324 17.3261 131.418 17.2282C131.822 17.0277 132.121 16.9615 132.314 17.0295C132.532 17.097 132.751 17.2725 132.973 17.556C133.244 17.8624 133.297 18.1374 133.134 18.3808C132.971 18.6002 132.581 18.9084 131.965 19.3053C131.468 19.6277 130.864 20.0123 130.153 20.4591C129.466 20.9055 128.85 21.3023 128.305 21.6497C127.784 21.9966 127.489 22.2068 127.418 22.2803C127.418 22.2803 127.518 22.4582 127.717 22.8142C127.917 23.1701 128.115 23.4901 128.313 23.774C128.513 24.1539 128.725 24.5096 128.948 24.8411C129.194 25.148 129.318 25.3615 129.321 25.4815C129.523 25.9814 129.772 26.3963 130.067 26.7263C130.361 27.0322 130.689 27.2294 131.051 27.318C131.437 27.382 131.82 27.326 132.2 27.1501C132.676 26.9482 133.023 26.8809 133.24 26.9484C133.482 27.0154 133.653 27.1919 133.755 27.4779C133.855 27.6678 133.882 27.8113 133.836 27.9083C133.814 27.9808 133.662 28.164 133.38 28.4579C132.933 28.9232 132.471 29.2209 131.994 29.3508C131.54 29.4803 131.12 29.453 130.732 29.269C130.492 29.274 130.214 29.1837 129.898 28.9983C129.582 28.7888 129.19 28.4488 128.725 27.9784C128.283 27.5075 127.729 26.8468 127.063 25.9964C127.061 25.9005 127.01 25.7695 126.911 25.6035C126.835 25.413 126.747 25.2348 126.648 25.0689C126.548 24.8789 126.424 24.6774 126.275 24.4645C126.126 24.2275 126.052 24.109 126.052 24.109C126.05 24.037 126.025 23.9775 125.976 23.9306C125.951 23.8591 125.901 23.7761 125.827 23.6816C125.777 23.5866 125.715 23.4799 125.64 23.3614C125.254 23.2494 124.979 23.3271 124.817 23.5945C124.654 23.862 124.48 24.1416 124.294 24.4336C124.181 24.748 124.034 25.1951 123.854 25.775C123.697 26.3304 123.565 26.8732 123.456 27.4036C123.371 27.9335 123.354 28.2939 123.406 28.4849C123.414 28.8688 123.359 29.134 123.242 29.2804C123.125 29.4029 122.874 29.4681 122.49 29.4761ZM133.853 28.304C133.664 28.452 133.389 28.4937 133.027 28.4292C132.666 28.3647 132.376 28.2987 132.159 28.2312C132.109 28.1362 132.059 28.0292 132.008 27.9102C131.958 27.7912 131.92 27.684 131.894 27.5885C131.867 27.4691 131.841 27.3496 131.814 27.2301C131.812 27.1101 131.785 27.0026 131.735 26.9077C131.806 26.8342 131.864 26.761 131.911 26.688C131.981 26.6145 132.052 26.553 132.123 26.5035C132.243 26.501 132.375 26.4983 132.519 26.4953C132.663 26.4923 132.795 26.4896 132.915 26.4871C133.034 26.4366 133.128 26.3626 133.198 26.2652C133.292 26.1432 133.411 26.0807 133.555 26.0777C134.076 25.7308 134.58 25.1923 135.069 24.4619C135.582 23.7311 136.07 22.9169 136.531 22.0191C137.016 21.1208 137.442 20.2478 137.809 19.4C138.199 18.5277 138.52 17.8009 138.772 17.2195C138.771 17.1716 138.77 17.1356 138.77 17.1116C138.769 17.0876 138.757 17.0638 138.732 17.0403C138.565 17.0918 138.386 17.1435 138.195 17.1955C138.004 17.2235 137.813 17.2755 137.622 17.3514C137.599 17.3759 137.563 17.4007 137.516 17.4257C137.468 17.4506 137.433 17.4754 137.409 17.4999C137.15 17.7213 136.803 17.7885 136.369 17.7015C135.959 17.614 135.667 17.416 135.493 17.1076C135.443 17.0126 135.393 16.9296 135.344 16.8586C135.294 16.7876 135.232 16.7049 135.158 16.6104C135.25 16.3925 135.39 16.1855 135.578 15.9896C135.789 15.7691 136.014 15.6324 136.253 15.5795C136.898 15.422 137.532 15.3009 138.154 15.2159C138.8 15.1065 139.447 15.0691 140.096 15.1036C140.745 15.1381 141.384 15.2689 142.013 15.4959C142.133 15.5174 142.242 15.5392 142.338 15.5612C142.435 15.5832 142.532 15.6292 142.629 15.6992C142.775 15.7922 142.921 15.8971 143.068 16.0141C143.214 16.1311 143.349 16.2484 143.471 16.3658C143.642 16.5063 143.777 16.6595 143.877 16.8255C143.976 16.9915 144.04 17.1822 144.069 17.3977C144.122 17.6366 144.151 17.8881 144.156 18.152C144.186 18.4154 144.179 18.6796 144.137 18.9446C144.029 19.5469 143.852 20.2708 143.606 21.1161C143.383 21.9369 143.182 22.6492 143.002 23.2531C142.734 24.1948 142.499 25.0399 142.298 25.7882C142.097 26.5125 141.908 27.2246 141.731 27.9244C141.421 28.0269 141.121 28.0211 140.83 27.9071C140.54 27.7931 140.284 27.6184 140.063 27.3829C139.96 27.049 139.906 26.7381 139.9 26.4501C139.893 26.1382 139.971 25.8245 140.132 25.5091C140.293 25.1697 140.404 24.7353 140.465 24.2059C140.526 23.6765 140.674 23.2534 140.907 22.9365C140.953 22.8395 140.975 22.755 140.974 22.683C140.971 22.5391 141.013 22.2621 141.101 21.8522C141.212 21.4418 141.335 20.9832 141.468 20.4763C141.601 19.9454 141.723 19.4508 141.833 18.9924C141.968 18.5335 142.057 18.1836 142.1 17.9426C142.145 17.7977 142.142 17.6657 142.091 17.5467C142.065 17.4272 142.05 17.2955 142.047 17.1516C141.853 17.0596 141.576 16.9933 141.215 16.9528C140.878 16.9118 140.653 17.0365 140.539 17.3269C140.516 17.3754 140.493 17.4359 140.47 17.5084C140.471 17.5564 140.46 17.6046 140.437 17.6531C140.258 18.2569 140.006 18.8383 139.681 19.3971C139.381 19.9555 139.109 20.7173 138.865 21.6826C138.798 21.948 138.695 22.2022 138.556 22.4451C138.441 22.6636 138.338 22.9058 138.247 23.1717C138.248 23.1957 138.236 23.22 138.213 23.2444C138.213 23.2684 138.202 23.2927 138.178 23.3172C138.179 23.3412 138.167 23.3654 138.144 23.3899C137.98 23.6094 137.829 23.8405 137.69 24.0835C137.575 24.3019 137.447 24.5326 137.308 24.7755C136.914 25.4559 136.388 26.0909 135.728 26.6808C135.092 27.2701 134.467 27.8112 133.853 28.304ZM146.854 27.9621C146.567 28.0161 146.254 27.9746 145.915 27.8376C145.576 27.7006 145.272 27.5029 145.003 27.2444C144.757 26.9854 144.596 26.7127 144.518 26.4263C144.411 25.9244 144.458 25.2993 144.659 24.551C144.883 23.7781 145.202 22.9673 145.617 22.1186C146.055 21.2453 146.541 20.407 147.077 19.6037C147.636 18.7999 148.21 18.1039 148.798 17.5155C149.409 16.9027 149.977 16.4829 150.5 16.2559C150.76 16.0825 150.962 15.9703 151.105 15.9193C151.272 15.8438 151.439 15.8284 151.608 15.8729C151.801 15.9169 152.08 16.0311 152.444 16.2156C152.782 16.3046 153.036 16.4073 153.206 16.5238C153.377 16.6403 153.598 16.8758 153.869 17.2302C154.068 17.5862 154.22 17.9431 154.323 18.301C154.427 18.659 154.519 19.0651 154.601 19.5195C154.805 20.1154 154.885 20.5098 154.841 20.7028C154.797 20.8718 154.727 21.0052 154.633 21.1032C154.447 21.3471 154.401 21.4681 154.497 21.4661C154.497 21.4661 154.486 21.5143 154.464 21.6108C154.465 21.6828 154.42 21.8038 154.327 21.9737C154.17 22.5051 154.05 23.0597 153.966 23.6376C153.905 24.191 153.927 24.6466 154.03 25.0046C154.233 25.5285 154.588 25.8332 155.094 25.9187C155.599 26.0042 156.111 25.7775 156.628 25.2387C156.888 25.0413 157.136 24.8681 157.373 24.7191C157.61 24.5462 157.73 24.5557 157.734 24.7476C157.734 24.7476 157.771 24.7829 157.844 24.8534C157.917 24.8999 158.001 24.9221 158.097 24.9201C158.217 24.9176 158.29 24.9641 158.316 25.0596C158.366 25.1546 158.369 25.2866 158.325 25.4555C158.304 25.6 158.235 25.7695 158.119 25.9639C157.767 26.3313 157.592 26.575 157.594 26.695C157.594 26.695 157.547 26.7439 157.453 26.8419C157.383 26.9154 157.253 27.0381 157.065 27.2101C156.638 27.483 156.089 27.6264 155.417 27.6403C154.769 27.6538 154.263 27.5323 153.897 27.2758C153.532 27.0193 153.189 26.6664 152.867 26.217C152.57 25.767 152.37 25.3751 152.267 25.0412L152.079 24.685L151.05 25.3905C150.791 25.6599 150.509 25.9178 150.202 26.1643C149.919 26.4102 149.73 26.5821 149.636 26.6801C149.566 26.7776 149.484 26.8633 149.389 26.9373C149.319 27.0108 149.236 27.0485 149.14 27.0505C149.044 27.0525 148.96 27.0542 148.888 27.0557C148.816 27.0572 148.78 27.058 148.78 27.058C148.782 27.1539 148.664 27.2764 148.427 27.4254C148.214 27.5738 147.953 27.6993 147.643 27.8017C147.357 27.9037 147.094 27.9571 146.854 27.9621ZM146.454 26.026C146.598 26.023 146.848 25.9098 147.203 25.6864C147.582 25.4385 147.996 25.1538 148.446 24.8324C148.919 24.5105 149.332 24.1899 149.686 23.8705C150.063 23.5506 150.322 23.3051 150.463 23.1342C150.557 23.0362 150.709 22.877 150.921 22.6566C151.132 22.4122 151.32 22.2042 151.484 22.0328C152.023 21.3974 152.393 20.7056 152.593 19.9573C152.793 19.185 152.757 18.5856 152.484 18.1592C152.382 17.8972 152.26 17.7557 152.115 17.7347C151.971 17.7137 151.672 17.8039 151.22 18.0054C150.936 18.1793 150.583 18.5107 150.161 18.9996C149.762 19.4639 149.33 20.013 148.863 20.6469C148.419 21.2562 148 21.889 147.606 22.5454C147.211 23.2017 146.888 23.8085 146.635 24.3659C146.383 24.9232 146.26 25.3579 146.266 25.6698C146.268 25.7658 146.294 25.8493 146.344 25.9203C146.417 25.9908 146.454 26.026 146.454 26.026ZM172.653 28.5068C172.41 28.3918 172.228 28.2756 172.105 28.1581C171.982 28.0166 171.775 27.8649 171.484 27.7029C171.381 27.369 171.266 27.0353 171.139 26.7019C171.035 26.3439 170.992 25.9968 171.009 25.6603C171.029 25.4679 170.989 25.2647 170.889 25.0507C170.812 24.8122 170.819 24.608 170.912 24.4381C170.856 24.0552 170.858 23.563 170.917 22.9617C170.976 22.3363 171.06 21.7464 171.169 21.1921C171.277 20.6137 171.352 20.204 171.395 19.9631C171.321 19.8686 171.248 19.8101 171.175 19.7876C171.127 19.7646 171.056 19.8021 170.962 19.9001C170.727 20.145 170.504 20.3897 170.293 20.6341C170.082 20.8785 169.859 21.1352 169.625 21.4041C169.531 21.5021 169.425 21.6003 169.307 21.6988C169.188 21.7733 169.131 21.8945 169.134 22.0625L167.874 23.817C167.782 24.0109 167.608 24.2666 167.35 24.584C167.116 24.877 166.931 25.2289 166.796 25.6398C166.751 25.8087 166.67 25.9544 166.553 26.0769C166.435 26.1754 166.317 26.2738 166.199 26.3723C165.885 26.2588 165.679 26.1791 165.582 26.1331C165.485 26.0871 165.302 25.9468 165.033 25.7124C164.788 25.4774 164.616 25.2649 164.516 25.075C164.415 24.861 164.387 24.6455 164.43 24.4286C164.423 24.0687 164.412 23.5648 164.399 22.9169C164.409 22.2446 164.396 21.6087 164.359 21.0093C164.346 20.3855 164.289 19.9546 164.188 19.7166C163.925 19.7461 163.746 19.7858 163.651 19.8358C163.556 19.8858 163.439 20.0322 163.3 20.2752C163.323 20.2507 163.219 20.4209 162.986 20.7858C162.777 21.1262 162.487 21.5763 162.114 22.1362C161.765 22.6715 161.416 23.2189 161.068 23.7782C160.719 24.3136 160.429 24.7757 160.197 25.1646C159.988 25.529 159.896 25.699 159.919 25.6745C159.755 25.8699 159.615 26.0769 159.5 26.2953C159.408 26.5133 159.317 26.7432 159.226 26.9852C159.112 27.2756 158.984 27.4703 158.842 27.5692C158.7 27.6442 158.567 27.623 158.445 27.5055C158.25 27.3895 158.044 27.2737 157.825 27.1583C157.631 27.0423 157.461 26.9378 157.315 26.8448C157.215 26.6788 157.128 26.5126 157.052 26.3461C157 26.1552 156.96 25.94 156.931 25.7005C157.12 25.5765 157.251 25.5018 157.322 25.4763C157.393 25.4269 157.452 25.3416 157.497 25.2207C158.009 24.4179 158.451 23.7365 158.823 23.1767C159.195 22.5929 159.509 22.1182 159.766 21.7528C160.022 21.3874 160.22 21.1073 160.36 20.9123C160.5 20.6934 160.581 20.5477 160.603 20.4752C160.718 20.2327 160.858 20.0018 161.021 19.7823C161.209 19.5624 161.384 19.3307 161.547 19.0873C161.569 19.0148 161.686 18.8444 161.896 18.5759C162.106 18.2835 162.328 17.9908 162.562 17.6979C162.796 17.405 162.961 17.2335 163.056 17.1836C163.174 17.1091 163.256 17.0114 163.302 16.8904C163.371 16.7449 163.44 16.5995 163.509 16.454C163.552 16.2371 163.657 16.0789 163.823 15.9794C163.989 15.8799 164.24 15.8507 164.577 15.8917C164.773 16.0557 164.992 16.2312 165.236 16.4181C165.48 16.5811 165.735 16.7559 166.003 16.9423C165.984 17.1828 165.977 17.435 165.983 17.6989C166.012 17.9624 166.117 18.3683 166.296 18.9167C166.23 19.2061 166.248 19.5058 166.351 19.8157C166.453 20.1257 166.459 20.4136 166.369 20.6796C166.375 20.9915 166.452 21.2179 166.599 21.3589C166.769 21.4754 167.019 21.3502 167.347 20.9833C167.721 20.4954 168.167 19.9701 168.683 19.4073C169.199 18.8204 169.704 18.2698 170.197 17.7555C170.714 17.2166 171.149 16.7635 171.501 16.3961C171.877 16.0042 172.1 15.7596 172.17 15.6621C172.215 15.5411 172.298 15.4794 172.418 15.4769C172.562 15.4499 172.694 15.4712 172.816 15.5407C173.228 15.7481 173.507 15.8984 173.653 15.9914C173.799 16.0844 174.007 16.2601 174.276 16.5186C174.523 16.8495 174.565 17.1487 174.403 17.4161C174.312 17.6581 174.188 18.0567 174.032 18.6121C173.899 19.143 173.755 19.7341 173.6 20.3854C173.47 21.0363 173.351 21.6509 173.242 22.2292C173.158 22.7831 173.107 23.2163 173.089 23.5287C173.075 24.0091 173.062 24.5135 173.049 25.0419C173.035 25.5463 173.082 26.0734 173.19 26.6233C173.397 27.3631 173.455 27.842 173.364 28.06C173.296 28.2534 173.059 28.4024 172.653 28.5068ZM182.363 27.153C181.868 27.5954 181.286 27.8595 180.615 27.9455C179.969 28.0309 179.331 27.9481 178.702 27.6971C178.072 27.4221 177.547 27.0009 177.127 26.4335C176.708 25.9141 176.432 25.3197 176.298 24.6503C176.164 23.957 176.133 23.0574 176.206 21.9517C176.259 21.0144 176.539 20.0724 177.047 19.1256C177.555 18.1549 178.174 17.2898 178.902 16.5306C179.654 15.7708 180.4 15.2392 181.137 14.9358C181.492 14.6884 181.79 14.5742 182.031 14.5932C182.294 14.5877 182.691 14.6035 183.22 14.6405C183.773 14.7011 184.183 14.8006 184.45 14.9391C184.741 15.0771 184.973 15.2643 185.146 15.5007C185.513 15.8532 185.761 16.2081 185.888 16.5656C186.015 16.899 186.082 17.2337 186.089 17.5696C186.004 18.0995 185.658 18.7548 185.05 19.5356C184.465 20.2919 183.686 20.9202 182.712 21.4205C182.188 21.5995 181.614 21.6834 180.989 21.6723C180.365 21.6613 179.846 21.516 179.432 21.2366C178.972 21.0541 178.673 21.0963 178.534 21.3632C178.395 21.6062 178.276 22.2088 178.176 23.1711C178.099 24.0849 178.185 24.7552 178.433 25.1821C178.682 25.5851 179.011 25.8183 179.42 25.8818C179.902 25.9678 180.276 26.0321 180.54 26.0746C180.829 26.0926 181.175 25.9774 181.578 25.729C181.956 25.4811 182.194 25.3441 182.289 25.3182C182.384 25.2682 182.455 25.2187 182.502 25.1697C182.573 25.0962 182.725 24.937 182.96 24.6921C183.125 24.5206 183.254 24.3979 183.349 24.3239C183.443 24.226 183.55 24.1757 183.67 24.1733C183.79 24.1708 183.899 24.2285 183.997 24.3465C184.095 24.4405 184.193 24.5105 184.29 24.5565C184.53 24.5515 184.581 24.6945 184.443 24.9854C184.329 25.2758 184.084 25.629 183.709 26.0449C183.333 26.4367 182.884 26.8061 182.363 27.153ZM182.169 19.5234C182.43 19.3979 182.703 19.2243 182.986 19.0023C183.269 18.7564 183.504 18.4995 183.69 18.2315C183.9 17.9391 184.003 17.6969 183.999 17.505C183.992 17.169 183.831 16.8963 183.514 16.6869C183.197 16.4534 182.729 16.4271 182.108 16.608C181.846 16.6855 181.55 16.8717 181.22 17.1666C180.889 17.4375 180.572 17.7442 180.267 18.0866C179.986 18.4285 179.752 18.7334 179.565 19.0013C179.403 19.2687 179.346 19.426 179.395 19.473C179.47 19.5914 179.676 19.6832 180.013 19.7482C180.35 19.7892 180.722 19.7935 181.13 19.761C181.561 19.7281 181.907 19.6489 182.169 19.5234Z" fill="#072239"/>
<path d="M37.251 97.8263L37.1623 97.8254C36.2533 97.816 35.7066 98.83 36.214 99.5843V99.5843C36.562 100.102 37.2635 100.239 37.7807 99.8907L38.373 99.4922" stroke="#072239" stroke-width="3" stroke-linecap="round"/>
<path d="M49.89 29.104C50.5774 29.0399 51.0827 28.4307 51.0186 27.7434C50.9545 27.056 50.3454 26.5507 49.658 26.6148L49.89 29.104ZM25.3203 79.8367C25.9606 79.5785 26.2703 78.8502 26.0122 78.2099L21.8052 67.7761C21.547 67.1359 20.8187 66.8261 20.1784 67.0843C19.5382 67.3424 19.2284 68.0708 19.4866 68.711L23.2261 77.9855L13.9517 81.7251C13.3114 81.9832 13.0016 82.7115 13.2598 83.3518C13.518 83.9921 14.2463 84.3018 14.8865 84.0437L25.3203 79.8367ZM49.658 26.6148C38.1909 27.6838 28.1594 30.2879 20.2242 33.9059C12.3105 37.5142 6.37814 42.1799 3.26583 47.4395C0.107698 52.7766 -0.0962048 58.6612 3.35768 64.3534C6.75668 69.9552 13.6263 75.261 24.3637 79.8277L25.3421 77.5271C14.8243 73.0538 8.50465 68.0166 5.495 63.0566C2.54022 58.1869 2.70825 53.2909 5.41736 48.7126C8.17229 44.057 13.6025 39.6727 21.2614 36.1806C28.8988 32.6984 38.6498 30.1518 49.89 29.104L49.658 26.6148Z" fill="#072239"/>
</svg>
