<svg width="1364" height="985" viewBox="0 0 1364 985" fill="none" xmlns="http://www.w3.org/2000/svg">
<path d="M238 71.9927C238 89.2705 252.009 103.272 269.288 103.272C269.891 103.272 270.494 103.272 271.141 103.229C274.589 103.015 277.91 102.281 280.969 101.031C282.865 103.272 284.932 105.342 287.174 107.235C295.881 114.56 307.127 119 319.411 119C330.186 119 340.182 115.595 348.371 109.777C350.785 110.597 353.284 111.199 355.826 111.632C358.585 112.105 361.384 112.319 364.272 112.319C373.322 112.319 381.812 109.906 389.184 105.728C392.372 103.921 395.303 101.765 398.016 99.3092C403.403 103.659 410.258 106.287 417.712 106.287C429.907 106.287 440.468 99.3092 445.637 89.1416C447.793 84.8739 449 80.0947 449 75.011C449 57.7332 434.995 43.7313 417.712 43.7313C417.584 43.7313 417.455 43.7313 417.323 43.7313C414.092 19.0427 393.061 0 367.55 0C351.388 0 336.994 7.6686 327.858 19.562C325.098 19.0856 322.296 18.8709 319.411 18.8709C301.739 18.8709 286.228 28.0037 277.306 41.7908C274.765 41.1036 272.048 40.756 269.288 40.756C252.655 40.756 239.035 53.7271 238.043 70.1419C238.043 70.7432 238 71.3485 238 71.9927Z" fill="#DBEAEB"/>
</svg>
