<svg width="1364" height="985" viewBox="0 0 1364 985" fill="none" xmlns="http://www.w3.org/2000/svg">
<path d="M1186.33 205.031C1186.33 228.078 1167.58 246.755 1144.46 246.755C1143.66 246.755 1142.85 246.755 1141.98 246.698C1137.37 246.411 1132.93 245.432 1128.83 243.766C1126.3 246.755 1123.53 249.516 1120.53 252.042C1108.88 261.813 1093.83 267.729 1077.4 267.729C1062.98 267.729 1049.6 263.193 1038.65 255.432C1035.42 256.526 1032.07 257.328 1028.67 257.906C1024.98 258.536 1021.23 258.823 1017.37 258.823C1005.26 258.823 993.901 255.604 984.036 250.031C979.771 247.62 975.849 244.745 972.219 241.469C965.01 247.271 955.839 250.776 945.865 250.776C929.547 250.776 915.417 241.469 908.5 227.906C905.615 222.214 904 215.839 904 209.057C904 186.01 922.74 167.333 945.865 167.333C946.036 167.333 946.208 167.333 946.385 167.333C950.708 134.401 978.849 109 1012.98 109C1034.61 109 1053.87 119.229 1066.09 135.094C1069.79 134.458 1073.53 134.172 1077.4 134.172C1101.04 134.172 1121.8 146.354 1133.73 164.745C1137.14 163.828 1140.77 163.365 1144.46 163.365C1166.72 163.365 1184.94 180.667 1186.27 202.563C1186.27 203.365 1186.33 204.172 1186.33 205.031Z" fill="#DBEAEB"/>
</svg>
